<svg xmlns="http://www.w3.org/2000/svg" width="33.303" height="36.449" viewBox="0 0 33.303 36.449">
  <g id="important_note" transform="translate(-9 -5)">
    <g id="Group_3432" data-name="Group 3432" transform="translate(9 5)">
      <path id="Path_9620" data-name="Path 9620" d="M15,26.675h9.17L24.845,26H15Z" transform="translate(-10.95 -11.825)" fill="#fff"/>
      <path id="Path_9621" data-name="Path 9621" d="M34.97,11H15v.675H34.3Z" transform="translate(-10.95 -6.95)" fill="#fff"/>
      <path id="Path_9622" data-name="Path 9622" d="M31.6,16H15v.675H30.92Z" transform="translate(-10.95 -8.575)" fill="#fff"/>
      <path id="Path_9623" data-name="Path 9623" d="M27.631,21.589,28.22,21H15v.675H27.545Z" transform="translate(-10.95 -10.2)" fill="#fff"/>
      <path id="Path_9624" data-name="Path 9624" d="M41.515,13.892,37.233,9.609a2.707,2.707,0,0,0-3.818,0l-.791.791-7.946,7.946L16.425,26.6l-1.35,1.35s1.322,3.4-2.025,6.75l.337.337-1.35,1.349c-1.3,1.305-1.154,2.362.337,2.362H14.4a1.868,1.868,0,0,0,1.152-.477l.535-.535.337.337a7.062,7.062,0,0,1,5.059-2.282,5.1,5.1,0,0,1,1.691.257l1.35-1.35,8.441-8.441L38.024,21.2V40.774H9.675V5.675H38.024V9.446l.675.675V5H9V41.449H38.7V20.525L40.724,18.5l.791-.791A2.707,2.707,0,0,0,41.515,13.892Zm-26.441,23.9a1.237,1.237,0,0,1-.674.279H12.375a.914.914,0,0,1-.548-.107c-.02-.062.04-.456.688-1.1l1.35-1.35L15.61,37.26Zm7.906-2.506a6.37,6.37,0,0,0-1.5-.171,7.565,7.565,0,0,0-5.043,2.018l-2.451-2.451a7.209,7.209,0,0,0,1.846-6.541l.589-.589L23.57,34.7Zm1.066-1.066L16.9,27.077,32.624,11.355,39.77,18.5ZM41.038,17.232l-.791.791L33.1,10.878l.791-.791a2.032,2.032,0,0,1,2.863,0l4.282,4.282A2.026,2.026,0,0,1,41.038,17.232Z" transform="translate(-9 -5)" fill="#fff"/>
    </g>
    <rect id="Rectangle_479" data-name="Rectangle 479" width="0.675" height="20.622" transform="translate(37.786 17.543) rotate(45)" fill="#fff"/>
  </g>
</svg>
